# xmcd
#
# Track frame offsets:
#	150
#	17704
#	34413
#	45789
#	57698
#	67601
#	83090
#	94688
#	104997
#	118339
#	132374
#	153878
#	165668
#	186703
#	197813
#	209685
#	231087
#	250933
#	271126
#	290986
#	303211
#	318825
#
# Disc length: 4417 seconds
#
# Revision: 0
# Processed by: cddbd v1.5.2PL0 Copyright (c) Steve Scherf et al.
# Submitted via: audiograbber 1.81.03
#
DISCID=45113f16
DTITLE=День Победы! - День Победы!
DYEAR=2005
DGENRE=Other
TTITLE0=Лещенко Лев - День Победы
TTITLE1=Евдокимов Ярослав - Майский вальс
TTITLE2=Краснознаменный ансамбль - Смуглянка
TTITLE3=Бернес Марк - Песенка фронтового шофера
TTITLE4=Виноградов Георгий - Катюша
TTITLE5=Мартынов Александр - На солнечной полянке
TTITLE6=Шульженко Клавдия - Давай закурим
TTITLE7=Флякс Евгений - В землянке
TTITLE8=Ургант Константин - Здесь птицы не поют
TTITLE9=Утесов Леонид - Случайный вальс
TTITLE10=Беляев Евгений - Где же вы теперь, друзья - однополчане
TTITLE11=Ножкин Михаил - Последний бой
TTITLE12=Кобзон Иосиф - Довоенный вальс
TTITLE13=Бернес Марк - Полевая почта
TTITLE14=Власов Владимир - Моя любимая
TTITLE15=Богатиков Юрий - На безымянной высоте
TTITLE16=Эйзен Яков - Эх, дороги
TTITLE17=Николаева Мария - Алеша
TTITLE18=Лабковский Эдуард - Бери шинель
TTITLE19=Кобзон Иосиф - Мгновения
TTITLE20=Бернес Марк - Темная ночь
TTITLE21=Шульженко Клавдия - Синий платочек
EXTD=
EXTT0=
EXTT1=
EXTT2=
EXTT3=
EXTT4=
EXTT5=
EXTT6=
EXTT7=
EXTT8=
EXTT9=
EXTT10=
EXTT11=
EXTT12=
EXTT13=
EXTT14=
EXTT15=
EXTT16=
EXTT17=
EXTT18=
EXTT19=
EXTT20=
EXTT21=
PLAYORDER=
